<svg width="72" height="71" viewBox="0 0 72 71" fill="none" xmlns="http://www.w3.org/2000/svg">
<path d="M38.7246 12.4623L54.4571 20.9448C56.2938 21.9356 56.2938 24.7631 54.4571 25.7539L38.7246 34.2364C37.323 34.9856 35.6796 34.9856 34.278 34.2364L18.5455 25.7539C16.7088 24.7631 16.7088 21.9356 18.5455 20.9448L34.278 12.4623C35.6796 11.7131 37.323 11.7131 38.7246 12.4623Z" stroke="white" stroke-width="2" stroke-linecap="round" stroke-linejoin="round"/>
<path d="M16.2229 31.4812L30.8437 38.8037C32.6562 39.722 33.8162 41.5829 33.8162 43.6129V57.4362C33.8162 59.442 31.7137 60.7229 29.9254 59.8287L15.3045 52.5062C13.492 51.5879 12.332 49.727 12.332 47.697V33.8737C12.332 31.8679 14.4345 30.587 16.2229 31.4812Z" stroke="white" stroke-width="2" stroke-linecap="round" stroke-linejoin="round"/>
<path d="M56.7769 31.4812L42.1561 38.8037C40.3436 39.722 39.1836 41.5829 39.1836 43.6129V57.4362C39.1836 59.442 41.2861 60.7229 43.0744 59.8287L57.6953 52.5062C59.5078 51.5879 60.6678 49.727 60.6678 47.697V33.8737C60.6678 31.8679 58.5653 30.587 56.7769 31.4812Z" stroke="white" stroke-width="2" stroke-linecap="round" stroke-linejoin="round"/>
<path d="M2.25 25.375V16.9375C2.25 8.53375 9.03375 1.75 17.4375 1.75H25.875" stroke="white" stroke-width="2" stroke-linecap="round" stroke-linejoin="round"/>
<path d="M46.125 1.75H54.5625C62.9663 1.75 69.75 8.53375 69.75 16.9375V25.375" stroke="white" stroke-width="2" stroke-linecap="round" stroke-linejoin="round"/>
<path d="M69.75 49V54.0625C69.75 62.4663 62.9663 69.25 54.5625 69.25H49.5" stroke="white" stroke-width="2" stroke-linecap="round" stroke-linejoin="round"/>
<path d="M25.875 69.25H17.4375C9.03375 69.25 2.25 62.4663 2.25 54.0625V45.625" stroke="white" stroke-width="2" stroke-linecap="round" stroke-linejoin="round"/>
</svg>
