<svg width="24" height="25" viewBox="0 0 24 25" fill="none" xmlns="http://www.w3.org/2000/svg">
<path d="M12.0247 4.4668C8.72343 4.4668 6.04055 6.80547 6.04055 9.68316V12.1957C6.04055 12.726 5.78124 13.5346 5.47206 13.9867L4.3251 15.6472C3.61698 16.6731 4.10569 17.812 5.40224 18.1945C9.70083 19.4464 14.3385 19.4464 18.6371 18.1945C19.8439 17.8468 20.3725 16.6035 19.7142 15.6472L18.5673 13.9867C18.2681 13.5346 18.0088 12.726 18.0088 12.1957V9.68316C18.0088 6.81416 15.3159 4.4668 12.0247 4.4668Z" stroke="#020202" stroke-width="1.5" stroke-miterlimit="10" stroke-linecap="round"/>
<path d="M13.3346 4.4668C13.1256 3.29219 12.6067 2.4668 12.0013 2.4668C11.3959 2.4668 10.877 3.29219 10.668 4.4668" stroke="#020202" stroke-width="1.5" stroke-miterlimit="10" stroke-linecap="round" stroke-linejoin="round"/>
<path d="M14.668 19.2778C14.668 20.7049 13.318 21.8724 11.668 21.8724C10.848 21.8724 10.088 21.5784 9.54797 21.1113C9.00797 20.6443 8.66797 19.987 8.66797 19.2778" stroke="#020202" stroke-width="1.5" stroke-miterlimit="10"/>
</svg>
